<svg width="130" height="322" viewBox="0 0 130 322" fill="none" xmlns="http://www.w3.org/2000/svg">
<path d="M129.125 11.375V0.6875H107.75V11.375C107.72 14.9533 107.434 18.5249 106.895 22.0625H23.105C22.5662 18.5249 22.2805 14.9533 22.25 11.375V0.6875H0.875V11.375C0.875 51.5066 21.9294 71.2677 44.6938 86.1875C21.9294 101.107 0.875 120.868 0.875 161C0.875 201.132 21.9294 220.893 44.6938 235.812C21.9294 250.732 0.875 270.493 0.875 310.625V321.312H22.25V310.625C22.2805 307.047 22.5662 303.475 23.105 299.938H106.895C107.434 303.475 107.72 307.047 107.75 310.625V321.312H129.125V310.625C129.125 270.493 108.071 250.732 85.3062 235.812C108.071 220.893 129.125 201.132 129.125 161C129.125 120.868 108.071 101.107 85.3062 86.1875C108.071 71.2677 129.125 51.5066 129.125 11.375ZM107.75 161C107.72 164.578 107.434 168.15 106.895 171.688H23.105C21.9707 164.608 21.9707 157.392 23.105 150.312H106.895C107.434 153.85 107.72 157.422 107.75 161ZM99.6702 278.562H30.3297C39.2399 265.798 51.1443 255.413 65 248.317C78.8557 255.413 90.76 265.798 99.6702 278.562ZM65 223.308C51.1443 216.212 39.2399 205.827 30.3297 193.062H99.6702C90.76 205.827 78.8557 216.212 65 223.308ZM99.6702 128.938H30.3297C39.2399 116.173 51.1443 105.788 65 98.6919C78.8557 105.788 90.76 116.173 99.6702 128.938ZM65 73.6831C51.1443 66.5874 39.2399 56.2022 30.3297 43.4375H99.6702C90.76 56.2022 78.8557 66.5874 65 73.6831Z" fill="white"/>
</svg>
