<svg width="258" height="300" viewBox="0 0 258 300" fill="none" xmlns="http://www.w3.org/2000/svg">
<path d="M249.031 231.417L171.75 125.152V21.75H193.125V0.375H64.8748V21.75H86.2498V125.152L8.9685 231.417C4.30697 237.824 1.50875 245.395 0.883468 253.294C0.258185 261.192 1.83022 269.109 5.42562 276.17C9.02103 283.23 14.4996 289.158 21.2552 293.297C28.0107 297.437 35.7799 299.627 43.7029 299.625H214.286C222.209 299.627 229.978 297.437 236.734 293.297C243.489 289.158 248.968 283.23 252.563 276.17C256.159 269.109 257.731 261.192 257.105 253.294C256.48 245.395 253.682 237.824 249.02 231.417H249.031ZM107.625 132.098V21.75H150.375V132.098L178.943 171.375H79.0571L107.625 132.098ZM214.297 278.25H43.7136C39.7356 278.246 35.8361 277.142 32.4456 275.062C29.0551 272.981 26.3053 270.004 24.4998 266.46C22.6943 262.915 21.9033 258.941 22.2141 254.975C22.5248 251.009 23.9253 247.206 26.2609 243.986L63.5175 192.75H194.482L231.749 243.986C234.085 247.206 235.486 251.009 235.796 254.975C236.107 258.941 235.316 262.915 233.511 266.46C231.705 270.004 228.955 272.981 225.565 275.062C222.174 277.142 218.275 278.246 214.297 278.25Z" fill="white"/>
</svg>
