<svg width="31" height="31" viewBox="0 0 31 31" fill="none" xmlns="http://www.w3.org/2000/svg">
<path fill-rule="evenodd" clip-rule="evenodd" d="M25.75 8.6665C25.75 7.98689 26.02 7.3351 26.5005 6.85454C26.9811 6.37398 27.6329 6.104 28.3125 6.104C28.9921 6.104 29.6439 6.37398 30.1245 6.85454C30.605 7.3351 30.875 7.98689 30.875 8.6665V26.0087L28.3125 29.8524L25.75 26.0087V8.6665ZM28.3125 7.81234C28.086 7.81234 27.8687 7.90233 27.7085 8.06252C27.5483 8.2227 27.4583 8.43996 27.4583 8.6665V25.491L28.3125 26.7723L29.1667 25.491V8.6665C29.1667 8.43996 29.0767 8.2227 28.9165 8.06252C28.7563 7.90233 28.539 7.81234 28.3125 7.81234Z" fill="white"/>
<path fill-rule="evenodd" clip-rule="evenodd" d="M30.0207 12.0833H26.604V10.375H30.0207V12.0833Z" fill="white"/>
<path fill-rule="evenodd" clip-rule="evenodd" d="M3.54167 1.83333C3.08859 1.83333 2.65407 2.01332 2.33369 2.33369C2.01332 2.65407 1.83333 3.08859 1.83333 3.54167V27.4583C1.83333 27.9114 2.01332 28.3459 2.33369 28.6663C2.65407 28.9867 3.08859 29.1667 3.54167 29.1667H20.625C21.0781 29.1667 21.5126 28.9867 21.833 28.6663C22.1533 28.3459 22.3333 27.9114 22.3333 27.4583V3.54167C22.3333 3.08859 22.1533 2.65407 21.833 2.33369C21.5126 2.01332 21.0781 1.83333 20.625 1.83333H3.54167ZM0.125 3.54167C0.125 2.63551 0.484969 1.76647 1.12572 1.12572C1.76647 0.484969 2.63551 0.125 3.54167 0.125H20.625C21.5312 0.125 22.4002 0.484969 23.0409 1.12572C23.6817 1.76647 24.0417 2.63551 24.0417 3.54167V27.4583C24.0417 28.3645 23.6817 29.2335 23.0409 29.8743C22.4002 30.515 21.5312 30.875 20.625 30.875H3.54167C2.63551 30.875 1.76647 30.515 1.12572 29.8743C0.484969 29.2335 0.125 28.3645 0.125 27.4583V3.54167Z" fill="white"/>
<path fill-rule="evenodd" clip-rule="evenodd" d="M12.0835 7.81266C12.0835 7.58612 12.1735 7.36886 12.3337 7.20868C12.4939 7.04849 12.7111 6.9585 12.9377 6.9585H19.771C19.9975 6.9585 20.2148 7.04849 20.375 7.20868C20.5352 7.36886 20.6252 7.58612 20.6252 7.81266C20.6252 8.0392 20.5352 8.25646 20.375 8.41665C20.2148 8.57684 19.9975 8.66683 19.771 8.66683H12.9377C12.7111 8.66683 12.4939 8.57684 12.3337 8.41665C12.1735 8.25646 12.0835 8.0392 12.0835 7.81266Z" fill="white"/>
<path fill-rule="evenodd" clip-rule="evenodd" d="M12.0835 11.2292C12.0835 11.0026 12.1735 10.7854 12.3337 10.6252C12.4939 10.465 12.7111 10.375 12.9377 10.375H19.771C19.9975 10.375 20.2148 10.465 20.375 10.6252C20.5352 10.7854 20.6252 11.0026 20.6252 11.2292C20.6252 11.4557 20.5352 11.673 20.375 11.8332C20.2148 11.9933 19.9975 12.0833 19.771 12.0833H12.9377C12.7111 12.0833 12.4939 11.9933 12.3337 11.8332C12.1735 11.673 12.0835 11.4557 12.0835 11.2292Z" fill="white"/>
<path fill-rule="evenodd" clip-rule="evenodd" d="M12.0835 18.9167C12.0835 18.6901 12.1735 18.4729 12.3337 18.3127C12.4939 18.1525 12.7111 18.0625 12.9377 18.0625H19.771C19.9975 18.0625 20.2148 18.1525 20.375 18.3127C20.5352 18.4729 20.6252 18.6901 20.6252 18.9167C20.6252 19.1432 20.5352 19.3605 20.375 19.5207C20.2148 19.6808 19.9975 19.7708 19.771 19.7708H12.9377C12.7111 19.7708 12.4939 19.6808 12.3337 19.5207C12.1735 19.3605 12.0835 19.1432 12.0835 18.9167Z" fill="white"/>
<path fill-rule="evenodd" clip-rule="evenodd" d="M12.0835 22.3332C12.0835 22.1066 12.1735 21.8894 12.3337 21.7292C12.4939 21.569 12.7111 21.479 12.9377 21.479H19.771C19.9975 21.479 20.2148 21.569 20.375 21.7292C20.5352 21.8894 20.6252 22.1066 20.6252 22.3332C20.6252 22.5597 20.5352 22.777 20.375 22.9372C20.2148 23.0973 19.9975 23.1873 19.771 23.1873H12.9377C12.7111 23.1873 12.4939 23.0973 12.3337 22.9372C12.1735 22.777 12.0835 22.5597 12.0835 22.3332Z" fill="white"/>
<path fill-rule="evenodd" clip-rule="evenodd" d="M5.24984 18.9168V21.4793H7.81234V18.9168H5.24984ZM4.39567 17.2085H8.6665C8.89304 17.2085 9.1103 17.2985 9.27049 17.4587C9.43068 17.6189 9.52067 17.8361 9.52067 18.0627V22.3335C9.52067 22.56 9.43068 22.7773 9.27049 22.9375C9.1103 23.0977 8.89304 23.1877 8.6665 23.1877H4.39567C4.16913 23.1877 3.95187 23.0977 3.79168 22.9375C3.6315 22.7773 3.5415 22.56 3.5415 22.3335V18.0627C3.5415 17.8361 3.6315 17.6189 3.79168 17.4587C3.95187 17.2985 4.16913 17.2085 4.39567 17.2085V17.2085Z" fill="white"/>
<path fill-rule="evenodd" clip-rule="evenodd" d="M10.1248 7.20858C10.2849 7.36876 10.3749 7.58599 10.3749 7.81248C10.3749 8.03897 10.2849 8.2562 10.1248 8.41638L6.10425 12.4369L3.79202 10.1247C3.71044 10.0459 3.64536 9.95166 3.6006 9.84745C3.55583 9.74324 3.53227 9.63116 3.53128 9.51774C3.5303 9.40432 3.55191 9.29185 3.59486 9.18687C3.63781 9.0819 3.70123 8.98653 3.78143 8.90633C3.86163 8.82613 3.957 8.76271 4.06197 8.71976C4.16695 8.67681 4.27942 8.6552 4.39284 8.65618C4.50625 8.65717 4.61834 8.68073 4.72255 8.7255C4.82676 8.77026 4.92101 8.83534 4.99981 8.91692L6.10425 10.0214L8.91702 7.20858C9.0772 7.04845 9.29442 6.9585 9.52091 6.9585C9.74741 6.9585 9.96463 7.04845 10.1248 7.20858V7.20858Z" fill="white"/>
</svg>
