<svg width="31" height="27" viewBox="0 0 31 27" fill="none" xmlns="http://www.w3.org/2000/svg">
<path fill-rule="evenodd" clip-rule="evenodd" d="M29.7188 0.375H17.6875L16.9219 0.703125L15.5 2.10312L14.0781 0.703125L13.3125 0.375H1.28125L0.1875 1.46875V23.3438L1.28125 24.4375H12.8531L14.7344 26.2969H16.2656L18.1469 24.4375H29.7188L30.8125 23.3438V1.46875L29.7188 0.375ZM14.4062 22.95L14.0125 22.5781L13.3125 22.25H2.375V2.5625H12.8531L14.4719 4.18125L14.4062 22.95ZM28.625 22.25H17.6875L16.9219 22.5781L16.6156 22.8625V4.09375L18.1469 2.5625H28.625V22.25ZM11.125 6.9375H4.5625V9.125H11.125V6.9375ZM11.125 15.6875H4.5625V17.875H11.125V15.6875ZM4.5625 11.3125H11.125V13.5H4.5625V11.3125ZM26.4375 6.9375H19.875V9.125H26.4375V6.9375ZM19.875 11.3125H26.4375V13.5H19.875V11.3125ZM19.875 15.6875H26.4375V17.875H19.875V15.6875Z" fill="white"/>
</svg>
